<?xml version="1.0" ?><!DOCTYPE svg  PUBLIC '-//W3C//DTD SVG 1.1//EN'  'http://www.w3.org/Graphics/SVG/1.1/DTD/svg11.dtd'><svg enable-background="new 0 0 512 512" id="Layer_1" version="1.1" viewBox="0 0 512 512" xml:space="preserve" xmlns="http://www.w3.org/2000/svg" xmlns:xlink="http://www.w3.org/1999/xlink"><circle cx="256" cy="256" fill="#1A1F71" id="ellipse" r="256"/><g id="logo"><polygon fill="#FFFFFF" points="229.3,206.5 207.5,306.8 233.9,306.8 255,206.5  "/><path d="M191,206.5l-27.1,68l-11.2-58.1c-1.3-6.6-6.6-9.9-11.9-9.9H96.7l-0.7,2.6c9.2,2,19.1,5.3,25.7,8.6   c4,2,4.6,4,5.9,8.6l20.5,79.8h27.7L218,205.8h-27V206.5z" fill="#FFFFFF"/><path d="M396.2,206.5h-22.4c-5.3,0-9.2,2.6-11.2,7.3l-38.9,93h27.1l5.3-15.2h33l3.3,15.2H416L396.2,206.5z    M364.5,271.2l13.9-37.6l7.9,37.6H364.5z" fill="#FFFFFF"/><path d="M289.3,234.2c0-3.3,3.3-7.3,11.2-8.6c4-0.7,13.9-0.7,25.7,4.6l4.6-21.1c-5.9-2-14.5-4.6-24.4-4.6   c-25.7,0-43.5,13.9-43.5,33c0,14.5,13.2,22.4,22.4,27.1c9.9,4.6,13.2,7.9,13.2,12.5c0,6.6-7.9,9.9-15.8,9.9   c-13.2,0-20.5-3.3-26.4-6.6l-4.6,21.8c5.9,2.6,17.2,5.3,29,5.3c27.1,0,44.9-13.2,44.9-34.3C325.6,248.1,288.7,246.1,289.3,234.2z" fill="#FFFFFF"/></g></svg>